<svg xmlns="http://www.w3.org/2000/svg" viewBox="0 0 26.74 20.59"><defs><style>.cls-1{fill:#47b9b0;}.cls-2{fill:#7e60a9;}.cls-3{fill:#ce60a4;}</style></defs><g id="Layer_2" data-name="Layer 2"><g id="Layer_1-2" data-name="Layer 1"><path class="cls-1" d="M20.26,4.54,18.1,17.77l-18,2.82.56-3.1a5.16,5.16,0,0,0,3.5-3.91c.31-1.7-.43-2.57-2.46-3L1.81,10c.12-.86.23-1.72.34-2.5Z"/><path class="cls-1" d="M26.74,3.56l-.46,3c-2.41,1-3.44,2.63-3.61,4.18s.63,2.54,2.57,2.77c-.1.5-.23,1.05-.31,1.59s-.11,1-.15,1.45l-5.27,1L21.67,4.34Z"/><path class="cls-2" d="M20.26,2.79,18.1,16l-18,2.82.56-3.1a5.16,5.16,0,0,0,3.5-3.91c.31-1.7-.43-2.57-2.46-3l.06-.57c.12-.86.23-1.72.34-2.5Z"/><path class="cls-2" d="M26.74,1.81l-.46,3c-2.41,1-3.44,2.63-3.61,4.18s.63,2.54,2.57,2.77c-.1.51-.23,1.05-.31,1.59s-.11,1-.15,1.45l-5.27,1L21.67,2.59Z"/><path class="cls-3" d="M20.11,1,18,14.21,0,17l.56-3.1A5.15,5.15,0,0,0,4.06,10c.31-1.7-.43-2.57-2.45-3,0-.18,0-.38.06-.57C1.78,5.59,1.9,4.73,2,4Z"/><path class="cls-3" d="M26.6,0l-.46,3C23.73,4,22.7,5.65,22.52,7.2s.64,2.54,2.57,2.77c-.1.5-.22,1-.3,1.59s-.11,1-.15,1.45l-5.28,1L21.52.78Z"/></g></g></svg>