<svg xmlns="http://www.w3.org/2000/svg" viewBox="0 0 176.86 83.16"><defs><style>.cls-1{fill:#212121;}.cls-2{opacity:0.8;}.cls-3{fill:#ce60a4;}.cls-4{fill:#7e60a9;}.cls-5{fill:#47b9b0;}.cls-6{opacity:0.9;}</style></defs><g id="Layer_2" data-name="Layer 2"><g id="Layer_1-2" data-name="Layer 1"><path class="cls-1" d="M162.23,68.53l-27.4,13-40.7-4.84,6.53-3a32.6,32.6,0,0,0,13.81-2.6c3.59-1.65,3.63-2.89.34-4.22l1.12-.57,5-2.49Z"/><path class="cls-1" d="M176.86,70.32l-6.19,3c-6.57,0-11.45,1.27-14.51,2.83-3.21,1.64-3.17,2.94.29,4-1.08.49-2.29,1-3.4,1.54s-2,1-2.82,1.46L138,81.88l27.34-12.95Z"/><g class="cls-2"><path class="cls-3" d="M154.3,60.22l-23,15.19L94.13,77l5.48-3.55a30.83,30.83,0,0,0,12.08-4.22c3-2,2.9-3-.22-3.73.29-.21.6-.44.93-.66l4.2-2.87Z"/><path class="cls-3" d="M167.68,59.71l-5.18,3.47c-5.91.95-10.14,2.73-12.68,4.52s-2.48,3,.77,3.48c-.91.58-1.93,1.2-2.86,1.82s-1.68,1.19-2.35,1.67l-11.12.61,22.93-15.15Z"/></g><path class="cls-4" d="M133.53,37.41l-7.84,24.68L93.94,77l1.94-5.82a17.67,17.67,0,0,0,7.23-8.87c1.07-3.19.07-4.33-3.28-4,.09-.33.18-.69.29-1,.46-1.6.93-3.19,1.35-4.63Z"/><path class="cls-4" d="M145,32.12l-1.73,5.61c-4.46,3.13-6.74,6.56-7.52,9.41s.29,4.17,3.55,3.52c-.33,1-.72,2-1,3s-.51,1.9-.71,2.65l-9.37,4.61L136,36.28Z"/><path class="cls-5" d="M112.87,12.7,110.6,41.56,93.94,77l.59-6.86a49.65,49.65,0,0,0,3.31-13.32c.33-3.76-.34-4.19-2.2-1.62,0-.38,0-.77.07-1.19.12-1.83.25-3.67.36-5.33Z"/><path class="cls-5" d="M118.88,0l-.49,6.53a50.22,50.22,0,0,0-3.43,14c-.2,3.42.53,3.78,2.32,1-.1,1.13-.23,2.39-.32,3.55s-.12,2.15-.17,3L111.9,38.76,114.17,10Z"/><path class="cls-1" d="M16.79,68.53l31.44,13,46.71-4.84-7.5-3a42.23,42.23,0,0,1-15.84-2.6c-4.12-1.65-4.18-2.89-.4-4.22-.41-.19-.83-.38-1.28-.57l-5.78-2.49Z"/><path class="cls-1" d="M0,70.32l7.1,3c7.55,0,13.14,1.27,16.65,2.83,3.69,1.64,3.64,2.94-.33,4,1.24.49,2.63,1,3.9,1.54s2.31,1,3.23,1.46l14-1.28L13.17,68.93Z"/><g class="cls-2"><path class="cls-3" d="M25.88,60.22,52.24,75.41,94.94,77l-6.3-3.55a39,39,0,0,1-13.86-4.22c-3.46-2-3.33-3,.26-3.73-.34-.21-.69-.44-1.07-.66l-4.82-2.87Z"/><path class="cls-3" d="M10.53,59.71l6,3.47c6.78.95,11.63,2.73,14.55,4.52,3.08,1.89,2.84,3-.88,3.48,1,.58,2.21,1.2,3.27,1.82s1.93,1.19,2.7,1.67l12.76.61L22.57,60.13Z"/></g><g class="cls-2"><path class="cls-4" d="M49.72,37.41c3,8.18,6,16.43,9,24.68L95.15,77l-2.22-5.82c-3.57-2.14-6.78-4.91-8.3-8.87-1.23-3.19-.08-4.33,3.76-4-.1-.33-.2-.69-.32-1-.54-1.6-1.08-3.19-1.56-4.63Z"/><path class="cls-4" d="M36.58,32.12l2,5.61c5.12,3.13,7.74,6.56,8.64,9.41s-.34,4.17-4.08,3.52c.38,1,.82,2,1.18,3s.58,1.9.81,2.65l10.75,4.61-9-24.63Z"/></g><g class="cls-6"><path class="cls-5" d="M73.43,12.7,76,41.56,95.15,77l-.67-6.86a44.32,44.32,0,0,1-3.8-13.32c-.38-3.76.39-4.19,2.53-1.62,0-.38,0-.77-.08-1.19-.15-1.83-.29-3.67-.42-5.33Z"/><path class="cls-5" d="M66.53,0l.56,6.53c2.58,6,3.72,10.78,3.94,14,.23,3.42-.61,3.78-2.66,1,.12,1.13.27,2.39.36,3.55s.14,2.15.2,3l5.61,10.65L71.94,10Z"/></g></g></g></svg>